<svg width="50" height="50" viewBox="0 0 50 50" fill="none" xmlns="http://www.w3.org/2000/svg">
<path d="M3.51459 3.51459C0 7.02916 0 12.6865 0 24V26C0 37.3135 0 42.9709 3.51459 46.4854C7.02916 50 12.6865 50 24 50H26C37.3135 50 42.9709 50 46.4854 46.4854C50 42.9709 50 37.3135 50 26V24C50 12.6865 50 7.02916 46.4854 3.51459C42.9709 0 37.3135 0 26 0H24C12.6865 0 7.02916 0 3.51459 3.51459ZM8.4375 15.2084H14.1459C14.3334 24.75 18.5416 28.7916 21.875 29.625V15.2084H27.25V23.4375C30.5416 23.0834 34 19.3334 35.1666 15.2084H40.5416C40.1019 17.3477 39.2254 19.3731 37.9672 21.1584C36.709 22.9435 35.0961 24.4499 33.2291 25.5834C35.3136 26.6182 37.1548 28.0837 38.6308 29.8829C40.1068 31.6823 41.1842 33.7743 41.7916 36.0209H35.875C35.3298 34.0694 34.2203 32.3225 32.6858 30.9993C31.1514 29.6762 29.2604 28.8357 27.25 28.5834V36.0209H26.6041C15.2084 36.0209 8.70834 28.2084 8.4375 15.2084Z" fill="white"/>
</svg>
