<svg width="104" height="60" viewBox="0 0 104 60" fill="none" xmlns="http://www.w3.org/2000/svg">
<path d="M5.5009 12.5122C7.28553 12.5122 8.57923 12.9284 9.37891 13.7545C10.1786 14.5837 10.5769 15.8384 10.5769 17.5153V18.2921C10.5769 19.4111 10.4009 20.3328 10.0489 21.0603C9.69694 21.7847 9.13499 22.3241 8.36619 22.6755C9.30172 23.0269 9.95938 23.6034 10.3422 24.4018C10.7251 25.2002 10.9196 26.1804 10.9196 27.3395V29.112C10.9196 30.792 10.4843 32.0713 9.61048 32.9529C8.73978 33.8345 7.43991 34.2753 5.71703 34.2753H0.332275V12.5122H5.5009ZM3.75641 15.6226V21.3747H5.09643C5.73865 21.3747 6.24192 21.2082 6.60626 20.8784C6.97059 20.5455 7.15276 19.9444 7.15276 19.0751V17.8605C7.15276 17.0745 7.01382 16.5042 6.73285 16.1497C6.45188 15.7983 6.01035 15.6226 5.40827 15.6226H3.75641ZM3.75641 24.4819V31.165H5.71703C6.2975 31.165 6.73902 31.0108 7.04161 30.6995C7.3411 30.3882 7.4924 29.8302 7.4924 29.0195V27.1237C7.4924 26.1095 7.32258 25.4129 6.97986 25.0399C6.63713 24.6669 6.0721 24.4788 5.28168 24.4788H3.75641V24.4819Z" fill="white"/>
<path d="M13.5349 17.7372C13.5349 15.9771 13.9826 14.6238 14.8749 13.6805C15.7672 12.7373 17.0548 12.2656 18.7375 12.2656C20.4202 12.2656 21.7047 12.7373 22.6001 13.6805C23.4924 14.6238 23.9401 15.9771 23.9401 17.7372V29.0534C23.9401 30.8166 23.4924 32.1668 22.6001 33.1101C21.7078 34.0534 20.4202 34.525 18.7375 34.525C17.0548 34.525 15.7672 34.0534 14.8749 33.1101C13.9826 32.1668 13.5349 30.8136 13.5349 29.0534V17.7372ZM16.959 29.2723C16.959 30.0614 17.1196 30.6132 17.4407 30.9369C17.7618 31.2575 18.1941 31.4177 18.7344 31.4177C19.2747 31.4177 19.7039 31.2575 20.0281 30.9369C20.3492 30.6163 20.5098 30.0614 20.5098 29.2723V17.5184C20.5098 16.7323 20.3492 16.1774 20.0281 15.8538C19.707 15.5332 19.2747 15.3729 18.7344 15.3729C18.1941 15.3729 17.7649 15.5332 17.4407 15.8538C17.1196 16.1743 16.959 16.7292 16.959 17.5184V29.2723Z" fill="white"/>
<path d="M33.9593 34.2753C33.9161 34.1304 33.8759 33.9948 33.8358 33.8715C33.7926 33.7482 33.7586 33.591 33.7277 33.406C33.6968 33.2211 33.6752 32.9806 33.666 32.6909C33.6567 32.4011 33.6505 32.0373 33.6505 31.6027V28.1841C33.6505 27.1699 33.4745 26.4548 33.1225 26.0386C32.7706 25.6256 32.1994 25.4159 31.4089 25.4159H30.2264V34.2753H26.8022V12.5122H31.9709C33.7555 12.5122 35.0492 12.9284 35.8489 13.7545C36.6486 14.5837 37.0469 15.8384 37.0469 17.5153V19.2261C37.0469 21.4641 36.2997 22.9375 34.8053 23.6404C35.676 23.9918 36.275 24.5682 36.5961 25.3666C36.9172 26.165 37.0778 27.133 37.0778 28.2735V31.6304C37.0778 32.1699 37.0994 32.6415 37.1395 33.0454C37.1796 33.4492 37.2846 33.8592 37.4514 34.2722H33.9593V34.2753ZM30.2233 15.6226V22.3056H31.5633C32.2055 22.3056 32.7088 22.1392 33.0731 21.8093C33.4375 21.4795 33.6196 20.8753 33.6196 20.006V17.8605C33.6196 17.0745 33.4807 16.5042 33.1997 16.1497C32.9188 15.7983 32.4772 15.6226 31.8752 15.6226H30.2233Z" fill="white"/>
<path d="M39.7578 17.7372C39.7578 15.9771 40.2055 14.6238 41.0978 13.6805C41.9901 12.7373 43.2777 12.2656 44.9604 12.2656C46.6431 12.2656 47.9276 12.7373 48.823 13.6805C49.7153 14.6238 50.163 15.9771 50.163 17.7372V29.0534C50.163 30.8166 49.7153 32.1668 48.823 33.1101C47.9307 34.0534 46.6431 34.525 44.9604 34.525C43.2777 34.525 41.9901 34.0534 41.0978 33.1101C40.2055 32.1668 39.7578 30.8136 39.7578 29.0534V17.7372ZM43.185 29.2723C43.185 30.0614 43.3456 30.6132 43.6667 30.9369C43.9878 31.2575 44.4201 31.4177 44.9604 31.4177C45.5007 31.4177 45.9299 31.2575 46.2541 30.9369C46.5752 30.6163 46.7358 30.0614 46.7358 29.2723V17.5184C46.7358 16.7323 46.5752 16.1774 46.2541 15.8538C45.933 15.5332 45.5007 15.3729 44.9604 15.3729C44.4201 15.3729 43.9909 15.5332 43.6667 15.8538C43.3456 16.1743 43.185 16.7292 43.185 17.5184V29.2723Z" fill="white"/>
<path d="M53.022 12.5122H58.4407C60.1636 12.5122 61.4449 12.9685 62.2878 13.8809C63.1277 14.7934 63.5476 16.1312 63.5476 17.8914V28.8962C63.5476 30.6594 63.1277 31.9942 62.2878 32.9066C61.448 33.8191 60.1636 34.2753 58.4407 34.2753H53.022V12.5122ZM56.4461 15.6226V31.1681H58.3759C58.9162 31.1681 59.3423 31.0139 59.6541 30.7026C59.966 30.3912 60.1203 29.8425 60.1203 29.0534V17.7372C60.1203 16.9512 59.966 16.3994 59.6541 16.088C59.3423 15.7767 58.9162 15.6226 58.3759 15.6226H56.4461Z" fill="white"/>
<path d="M77.5837 34.2753H74.1256L73.5327 30.3265H69.3274L68.7346 34.2753H65.5884L69.0774 12.5122H74.0916L77.5837 34.2753ZM69.769 27.3734H73.0696L71.4177 16.3686L69.769 27.3734Z" fill="white"/>
<path d="M89.8631 26.1619V29.0534C89.8631 30.8166 89.4308 32.1668 88.5694 33.1101C87.7079 34.0534 86.4359 34.525 84.7531 34.525C83.0704 34.525 81.7983 34.0534 80.9399 33.1101C80.0785 32.1668 79.6462 30.8136 79.6462 29.0534V17.7372C79.6462 15.9771 80.0754 14.6238 80.9399 13.6805C81.8014 12.7373 83.0735 12.2656 84.7531 12.2656C86.4359 12.2656 87.7049 12.7373 88.5694 13.6805C89.4308 14.6238 89.8631 15.9771 89.8631 17.7372V19.8519H86.6242V17.5214C86.6242 16.7354 86.4636 16.1805 86.1425 15.8568C85.8214 15.5363 85.3892 15.376 84.8488 15.376C84.3085 15.376 83.8793 15.5363 83.5551 15.8568C83.234 16.1774 83.0735 16.7323 83.0735 17.5214V29.2723C83.0735 30.0614 83.234 30.6101 83.5551 30.9214C83.8762 31.2328 84.3085 31.3869 84.8488 31.3869C85.3892 31.3869 85.8183 31.2328 86.1425 30.9214C86.4636 30.6101 86.6242 30.0614 86.6242 29.2723V26.1619H89.8631Z" fill="white"/>
<path d="M96.0445 34.2753H92.6204V12.5122H96.0445V21.8401H99.9379V12.5122H103.427V34.2753H99.9379V24.9505H96.0445V34.2753Z" fill="white"/>
<path d="M20.911 0.0924683C21.5717 0.0924683 22.0472 0.246598 22.3436 0.551774C22.64 0.85695 22.7851 1.32242 22.7851 1.94202V2.2287C22.7851 2.64177 22.7203 2.98394 22.5906 3.25212C22.4609 3.52031 22.2541 3.72067 21.97 3.85014C22.3158 3.97961 22.5597 4.19231 22.7018 4.48824C22.8438 4.78417 22.9148 5.14483 22.9148 5.57331V6.22682C22.9148 6.84642 22.7543 7.32114 22.4301 7.64481C22.109 7.97156 21.6273 8.13186 20.9912 8.13186H18.9998V0.0924683H20.911ZM20.2657 1.24227V3.36618H20.7597C20.9974 3.36618 21.1827 3.30452 21.3185 3.18122C21.4513 3.05792 21.5192 2.83597 21.5192 2.51538V2.06841C21.5192 1.77864 21.4667 1.56595 21.3648 1.43648C21.2599 1.30701 21.0993 1.24227 20.877 1.24227H20.2657ZM20.2657 4.51598V6.98513H20.9912C21.2074 6.98513 21.3679 6.92657 21.4791 6.81251C21.5902 6.69845 21.6458 6.49192 21.6458 6.19291V5.49316C21.6458 5.11709 21.581 4.86123 21.4544 4.72252C21.3278 4.5838 21.1178 4.51598 20.8276 4.51598H20.2657Z" fill="white"/>
<path d="M30.0689 8.13494H28.7906L28.5714 6.67688H27.0183L26.8022 8.13494H25.6382L26.9257 0.0924683H28.7783L30.0689 8.13494ZM27.182 5.58564H28.4016L27.7933 1.51971L27.182 5.58564Z" fill="white"/>
<path d="M35.6048 8.13494C35.5894 8.08254 35.5739 8.03013 35.5585 7.98698C35.5431 7.94074 35.5307 7.88217 35.5184 7.81435C35.506 7.74653 35.4998 7.65714 35.4967 7.54925C35.4937 7.44136 35.4906 7.30881 35.4906 7.14851V5.88465C35.4906 5.50857 35.4257 5.24656 35.296 5.09243C35.1664 4.9383 34.9533 4.86123 34.6631 4.86123H34.2247V8.13494H32.9587V0.0924683H34.87C35.5307 0.0924683 36.0062 0.246598 36.3026 0.551774C36.599 0.85695 36.7441 1.32242 36.7441 1.94202V2.57395C36.7441 3.40009 36.4693 3.9457 35.9167 4.20464C36.2378 4.33411 36.4601 4.54681 36.5774 4.84274C36.6947 5.13867 36.7565 5.49625 36.7565 5.91548V7.15776C36.7565 7.35813 36.7627 7.53075 36.7781 7.6818C36.7935 7.82976 36.8306 7.98389 36.8923 8.13494H35.6048ZM34.2247 1.24227V3.71143H34.7187C34.9564 3.71143 35.1417 3.64978 35.2775 3.52647C35.4103 3.40317 35.4782 3.18122 35.4782 2.86063V2.06841C35.4782 1.77864 35.4257 1.56595 35.3238 1.43648C35.2189 1.30701 35.0583 1.24227 34.836 1.24227H34.2247Z" fill="white"/>
<path d="M41.7984 0.0924683C42.4592 0.0924683 42.9347 0.246598 43.2311 0.551774C43.5275 0.85695 43.6726 1.32242 43.6726 1.94202V2.2287C43.6726 2.64177 43.6077 2.98394 43.4781 3.25212C43.3484 3.52031 43.1415 3.72067 42.8575 3.85014C43.2033 3.97961 43.4472 4.19231 43.5892 4.48824C43.7313 4.78417 43.8023 5.14483 43.8023 5.57331V6.22682C43.8023 6.84642 43.6417 7.32114 43.3175 7.64481C42.9964 7.97156 42.5147 8.13186 41.8787 8.13186H39.8872V0.0924683H41.7984ZM41.1531 1.24227V3.36618H41.6471C41.8849 3.36618 42.0701 3.30452 42.206 3.18122C42.3388 3.05792 42.4067 2.83597 42.4067 2.51538V2.06841C42.4067 1.77864 42.3542 1.56595 42.2523 1.43648C42.1473 1.30701 41.9868 1.24227 41.7645 1.24227H41.1531ZM41.1531 4.51598V6.98513H41.8787C42.0948 6.98513 42.2554 6.92657 42.3665 6.81251C42.4777 6.69845 42.5333 6.49192 42.5333 6.19291V5.49316C42.5333 5.11709 42.4684 4.86123 42.3418 4.72252C42.2152 4.5838 42.0053 4.51598 41.7151 4.51598H41.1531Z" fill="white"/>
<path d="M48.125 3.48331H49.8634V4.63312H48.125V6.98822H50.3111V8.13802H46.8591V0.0924683H50.3111V1.24227H48.125V3.48331Z" fill="white"/>
<path d="M56.0447 8.13494C56.0293 8.08254 56.0139 8.03013 55.9984 7.98698C55.983 7.94074 55.9706 7.88217 55.9583 7.81435C55.9459 7.74653 55.9398 7.65714 55.9367 7.54925C55.9336 7.44136 55.9305 7.30881 55.9305 7.14851V5.88465C55.9305 5.50857 55.8657 5.24656 55.736 5.09243C55.6063 4.9383 55.3933 4.86123 55.103 4.86123H54.6646V8.13494H53.3987V0.0924683H55.3099C55.9706 0.0924683 56.4461 0.246598 56.7425 0.551774C57.0389 0.85695 57.1841 1.32242 57.1841 1.94202V2.57395C57.1841 3.40009 56.9093 3.9457 56.3566 4.20464C56.6777 4.33411 56.9 4.54681 57.0173 4.84274C57.1347 5.13867 57.1964 5.49625 57.1964 5.91548V7.15776C57.1964 7.35813 57.2026 7.53075 57.218 7.6818C57.2335 7.82976 57.2705 7.98389 57.3323 8.13494H56.0447ZM54.6646 1.24227V3.71143H55.1586C55.3964 3.71143 55.5816 3.64978 55.7175 3.52647C55.8502 3.40317 55.9182 3.18122 55.9182 2.86063V2.06841C55.9182 1.77864 55.8657 1.56595 55.7638 1.43648C55.6588 1.30701 55.4982 1.24227 55.2759 1.24227H54.6646Z" fill="white"/>
<path d="M60.1635 2.02218C60.1635 1.37175 60.3179 0.872372 60.6297 0.524039C60.9416 0.175707 61.4078 0 62.0284 0C62.649 0 63.1152 0.172625 63.4271 0.524039C63.7389 0.872372 63.8933 1.37175 63.8933 2.02218V2.27495H62.6953V1.94203C62.6953 1.65227 62.6398 1.44573 62.5286 1.32859C62.4175 1.20837 62.2631 1.1498 62.0624 1.1498C61.8617 1.1498 61.7073 1.20837 61.5962 1.32859C61.485 1.44882 61.4294 1.65227 61.4294 1.94203C61.4294 2.21638 61.4912 2.4599 61.6147 2.6726C61.7382 2.88222 61.8895 3.08259 62.0747 3.27063C62.26 3.45866 62.4576 3.6467 62.6676 3.83474C62.8775 4.02278 63.0751 4.22623 63.2604 4.44817C63.4456 4.67012 63.5969 4.92289 63.7204 5.20649C63.8439 5.49009 63.9057 5.82301 63.9057 6.20525C63.9057 6.85567 63.7451 7.35505 63.4271 7.70339C63.1091 8.05172 62.6398 8.22743 62.0161 8.22743C61.3924 8.22743 60.9262 8.0548 60.605 7.70339C60.287 7.35505 60.1265 6.85567 60.1265 6.20525V5.71203H61.3244V6.2854C61.3244 6.57824 61.3831 6.77861 61.5035 6.89575C61.6209 7.0098 61.7814 7.06837 61.9821 7.06837C62.1828 7.06837 62.3403 7.0098 62.4607 6.89575C62.5811 6.78169 62.6398 6.57824 62.6398 6.2854C62.6398 6.01105 62.578 5.76752 62.4545 5.55482C62.331 5.34521 62.1766 5.14484 61.9945 4.9568C61.8092 4.76876 61.6116 4.58072 61.4016 4.39269C61.1917 4.20465 60.9941 4.0012 60.8088 3.77925C60.6236 3.55731 60.4723 3.30453 60.3488 3.02094C60.2253 2.73734 60.1635 2.40442 60.1635 2.02218Z" fill="white"/>
<path d="M68.1973 8.13494H66.9314V0.0924683H68.1973V3.5388H69.6361V0.0924683H70.9236V8.13494H69.6361V4.68861H68.1973V8.13494Z" fill="white"/>
<path d="M74.0422 2.02218C74.0422 1.37175 74.2059 0.872372 74.5363 0.524039C74.8666 0.175707 75.3421 0 75.9627 0C76.5833 0 77.0588 0.172625 77.3892 0.524039C77.7196 0.872372 77.8832 1.37175 77.8832 2.02218V6.20525C77.8832 6.85567 77.7196 7.35505 77.3892 7.70339C77.0588 8.05172 76.5833 8.22743 75.9627 8.22743C75.3421 8.22743 74.8666 8.0548 74.5363 7.70339C74.2059 7.35505 74.0422 6.85567 74.0422 6.20525V2.02218ZM75.3082 6.2854C75.3082 6.57824 75.3668 6.78169 75.4872 6.89883C75.6046 7.01905 75.7651 7.07762 75.9658 7.07762C76.1665 7.07762 76.324 7.01905 76.4444 6.89883C76.5648 6.77861 76.6235 6.57516 76.6235 6.2854V1.94203C76.6235 1.65227 76.5648 1.44573 76.4444 1.32859C76.324 1.20837 76.1665 1.1498 75.9658 1.1498C75.7651 1.1498 75.6076 1.20837 75.4872 1.32859C75.3668 1.44882 75.3082 1.65227 75.3082 1.94203V6.2854Z" fill="white"/>
<path d="M82.8695 0.0924683C83.5056 0.0924683 83.9811 0.262011 84.2898 0.598013C84.6017 0.934015 84.7561 1.43031 84.7561 2.08074V3.12573C84.7561 3.77616 84.6017 4.27246 84.2898 4.60846C83.978 4.94446 83.5056 5.114 82.8695 5.114H82.2706V8.13494H81.0046V0.0924683H82.8695ZM82.2706 1.24227V3.9642H82.8695C83.0702 3.9642 83.2215 3.9118 83.3296 3.8039C83.4377 3.69601 83.4902 3.49873 83.4902 3.20588V2.00059C83.4902 1.71083 83.4377 1.51046 83.3296 1.40257C83.2215 1.29468 83.0702 1.24227 82.8695 1.24227H82.2706Z" fill="white"/>
<path d="M61.3648 41.4608C60.3181 41.2049 59.2714 40.9799 58.2463 40.684C57.8542 40.573 57.4775 40.3418 57.1564 40.086C57.0113 39.9719 57.0144 39.6667 56.9526 39.4479C57.1842 39.4355 57.4374 39.3554 57.6411 39.4263C58.5304 39.7315 59.3795 40.2031 60.2872 40.3819C61.1826 40.5576 62.1367 40.4651 63.0629 40.462C63.2297 40.462 63.3964 40.3326 63.5601 40.2617C65.4003 39.4725 67.2219 38.6464 69.0868 37.9189C69.621 37.7093 70.2725 37.7247 70.8591 37.7679C71.1679 37.7894 71.6434 38.0422 71.7051 38.2796C71.7823 38.5724 71.597 39.041 71.3655 39.2814C71.0505 39.6112 70.5874 39.8024 70.1829 40.049C70.0224 40.1476 69.8526 40.2339 69.7167 40.4466C69.8865 40.4466 70.0594 40.4435 70.2292 40.4466C72.9988 40.5237 75.7776 40.5021 78.5349 40.7148C80.69 40.8813 82.8359 41.2789 84.9663 41.6827C87.8625 42.2345 90.8018 42.2838 93.7227 42.5551C94.2136 42.6014 94.7077 42.6044 95.1955 42.6753C95.3684 42.7 95.5876 42.8202 95.6648 42.962C95.7173 43.0607 95.5938 43.2919 95.4981 43.4275C95.3746 43.6032 95.2078 43.7573 95.0411 43.893C93.8277 44.8855 92.6081 45.8689 91.3916 46.8553C90.9254 47.2345 90.4097 47.3917 89.8107 47.2746C87.9705 46.917 86.0964 46.6858 84.2963 46.1833C80.69 45.1815 77.0219 44.6667 73.3045 44.4108C72.1528 44.3307 71.9305 44.0656 72.1127 42.9404C72.1621 42.6383 72.2146 42.3393 72.2856 41.9293C71.4303 41.8615 70.6245 41.7845 69.8155 41.7351C69.3431 41.7074 68.8553 41.7937 68.3952 41.7074C67.4844 41.5348 66.7495 41.8245 65.9992 42.3085C62.5072 44.568 59.0923 46.9262 55.8719 49.5618C55.7454 49.6636 55.6311 49.7776 55.4798 49.9102C56.2394 50.4959 56.9927 51.0353 57.6998 51.6272C59.5153 53.15 61.3215 54.6789 63.1031 56.2418C63.5168 56.6056 63.8348 57.0926 64.1467 57.5581C64.4585 58.0266 64.3072 58.4551 63.9059 58.8189C62.3127 60.2553 59.5709 60.3293 57.9993 58.8959C56.0603 57.1296 54.18 55.2985 52.2749 53.4952C52.1699 53.3966 52.0619 53.2979 51.9075 53.1561C51.4042 53.6339 50.9071 54.1056 50.41 54.5772C48.9681 55.9428 47.4891 57.2714 46.0966 58.6863C44.241 60.5728 42.0365 60.1197 40.1067 58.9576C39.412 58.5383 39.3039 58.042 39.7702 57.3885C40.2086 56.772 40.7211 56.1863 41.2985 55.6993C43.4413 53.8898 45.6212 52.1235 47.7886 50.3417C47.9554 50.203 48.1283 50.0735 48.3598 49.8917C47.5138 49.2197 46.7358 48.5353 45.8898 47.9435C42.9936 45.9182 40.0789 43.9207 37.1519 41.9386C36.8647 41.7444 36.4418 41.6673 36.0867 41.6766C34.7559 41.7105 33.4283 41.7968 32.1006 41.8708C31.9061 41.88 31.7116 41.9232 31.4615 41.9571C31.5232 42.3362 31.5757 42.6723 31.6282 43.0052C31.7887 44.0409 31.5541 44.3369 30.5198 44.4016C27.3303 44.5989 24.1717 45.015 21.0594 45.7518C19.003 46.2357 16.9467 46.7074 14.8842 47.1697C14.5322 47.2499 14.1524 47.3115 13.8005 47.2715C13.3466 47.2191 12.8186 47.1728 12.4759 46.917C11.1235 45.8997 9.82981 44.7992 8.51759 43.7296C8.43422 43.6618 8.34468 43.5847 8.29528 43.4922C8.19957 43.3134 8.0174 43.036 8.07915 42.9497C8.19339 42.7925 8.45584 42.6723 8.6627 42.663C13.6986 42.4287 18.6758 41.7413 23.6375 40.8782C24.9405 40.6501 26.2836 40.5977 27.6112 40.5668C29.7726 40.5175 31.9339 40.5545 34.0983 40.5545C34.1106 40.4805 34.123 40.4035 34.1353 40.3295C33.8111 40.1538 33.4715 39.9997 33.172 39.7931C32.8324 39.5588 32.4588 39.3246 32.2179 39.004C31.8135 38.4614 32.0512 37.8634 32.7212 37.7925C33.3603 37.7278 34.0705 37.6877 34.6571 37.8942C36.2843 38.4707 37.9238 39.0718 39.4429 39.8763C40.7119 40.5483 41.9901 40.6377 43.2962 40.4065C44.2101 40.2463 45.0777 39.8178 45.9546 39.4756C46.2634 39.3523 46.5968 39.0934 46.7852 39.5064C46.8562 39.6606 46.6061 40.1291 46.4023 40.2093C45.4266 40.5915 44.4232 40.9028 43.4197 41.208C43.1109 41.3005 42.7744 41.2974 42.3082 41.3591C42.5367 41.5101 42.6725 41.6057 42.8084 41.692C45.723 43.523 48.6377 45.3572 51.5648 47.1728C51.7222 47.2715 52.0279 47.3054 52.173 47.2191C55.2081 45.3418 58.234 43.4398 61.2567 41.544C61.3092 41.5255 61.3432 41.4793 61.3648 41.4608Z" fill="#AC3030"/>
</svg>
