<svg width="361" height="38" viewBox="0 0 361 38" fill="none" xmlns="http://www.w3.org/2000/svg">
<g clip-path="url(#clip0_36_83)">
<path d="M335.9 21.1001C340.7 18.8001 344.8 14.6001 344.5 8.90008C344.2 4.00008 339.6 -1.49992 334.2 0.300081C328.8 2.10008 330.4 9.60008 335.5 10.5001C337.6 10.9001 340.1 9.70008 339.5 7.30008C339 5.20008 337 4.50008 335.6 6.30008C335.2 6.80008 336.1 7.50008 336.5 7.10008C336.9 6.80008 337.4 6.80008 337.8 7.20008C338 7.50008 338.1 7.80008 338 8.10008C337.5 8.90008 336.7 9.30008 335.8 9.20008C333.8 9.00008 332.3 7.20008 332.5 5.20008C332.5 5.10008 332.5 5.00008 332.5 4.90008C332.9 2.30008 335.8 1.10008 338.2 1.90008C343.9 3.70008 343.3 11.2001 340.4 15.1001C338.7 17.2001 336.5 18.8001 334 19.8001C327.6 15.7001 319.1 15.9001 312.3 18.8001C312 18.9001 312.1 19.2001 312.3 19.5001C312.3 19.6001 312.4 19.7001 312.4 19.8001C314.4 22.1001 318 22.9001 320.9 23.3001C324.6 23.8001 328.4 23.5001 332.1 22.5001C332.9 22.3001 333.7 22.0001 334.4 21.7001C335.8 22.8001 336.9 24.2001 337.8 25.7001C339.2 27.8001 339.4 30.4001 338.5 32.7001C337.5 34.9001 335 36.7001 332.5 36.0001C330.6 35.5001 329.5 33.5001 330 31.6001C330.3 30.6001 331 29.8001 332 29.3001C333.2 28.7001 335.1 29.0001 335.1 30.7001C335.1 31.6001 334.3 32.7001 333.2 31.7001C332.8 31.4001 331.8 31.4001 332.1 32.1001C332.5 33.5001 334 34.2001 335.3 33.8001C335.6 33.7001 335.9 33.5001 336.2 33.3001C337.4 32.3001 337.2 30.5001 336.5 29.3001C333.8 24.8001 327.6 28.2001 328 32.8001C328.5 38.8001 336.7 39.3001 339.7 35.0001C343.1 30.3001 339.9 24.5001 335.9 21.1001ZM327.6 21.5001C325.1 21.9001 322.6 21.9001 320.2 21.5001C318.2 21.0001 316.3 20.3001 314.4 19.4001C320.3 18.0001 327.3 17.5001 332.5 20.4001C331 20.9001 329.3 21.3001 327.6 21.5001Z" fill="white"/>
<path d="M359.7 20C355.3 18.7 350.9 19.7 346.5 19.9C347.8 19.2 349 18.4 350.1 17.4C351.5 16.2 353.8 14.4 352.5 12.5C352.3 12.2 351.9 12 351.5 12.1C347.3 13.1 342.9 17.2 340.6 20.7C340.5 20.8 340.5 21 340.6 21.2V21.3C341 26.3 346.4 30.2 350.9 31.3C351.5 31.4 351.9 31.2 351.8 30.5C351.2 27.3 349.3 24.6 346.6 22.8C348.6 22.8 350.7 22.8 352.7 22.8C355.3 22.9 357.8 22.4 360.2 21.5C361.1 21.3 360.2 20.2 359.7 20ZM350.9 14.2C349.8 15.4 348.6 16.4 347.3 17.4C346.2 18.2 344.9 18.8 343.6 19.3C345.7 17.1 348.1 15.3 350.9 14.2ZM349.7 29.4C346.4 28.2 344.4 25.9 342.7 22.9C346.1 23.6 348.7 26.1 349.7 29.4ZM351.3 21.2C352.6 21.1 354 21 355.3 21C353.9 21.2 352.6 21.2 351.3 21.2Z" fill="white"/>
<path d="M20.9 35.1C23.9 39.4 32 38.9 32.6 32.9C33 28.3 26.8 24.9 24.1 29.4C23.4 30.6 23.2 32.4 24.4 33.4C25.5 34.3 27.1 34.2 28 33.1C28.2 32.8 28.4 32.5 28.5 32.2C28.8 31.5 27.7 31.4 27.4 31.8C26.3 32.8 25.5 31.7 25.5 30.8C25.5 29.2 27.4 28.8 28.6 29.4C30.4 30.2 31.2 32.3 30.4 34.1C30 35.1 29.1 35.8 28.1 36.1C25.6 36.8 23.1 35 22.1 32.8C21.2 30.5 21.4 27.9 22.8 25.8C23.7 24.3 24.8 22.9 26.2 21.8C27 22.1 27.7 22.4 28.5 22.6C32.1 23.6 35.9 23.9 39.7 23.4C42.5 23 46.2 22.1 48.1 19.9C48.2 19.8 48.2 19.7 48.3 19.6C48.5 19.4 48.6 19.1 48.3 18.9C41.5 15.9 33 15.7 26.6 19.9C24.1 18.9 21.9 17.3 20.3 15.2C17.4 11.4 16.8 3.79996 22.5 1.99996C24.9 1.19996 27.8 2.39996 28.2 4.99996C28.5 6.99996 27.2 8.89996 25.2 9.19996C25.1 9.19996 25 9.19996 24.9 9.19996C24 9.29996 23.2 8.89996 22.7 8.09996C22.5 7.59996 22.7 7.09996 23.2 6.89996C23.5 6.79996 23.9 6.79996 24.1 7.09996C24.5 7.49996 25.4 6.79996 25 6.29996C23.7 4.49996 21.6 5.19996 21.2 7.29996C20.6 9.79996 23.1 10.9 25.2 10.5C30.2 9.59996 31.7 2.09996 26.5 0.299958C21.3 -1.50004 16.3 4.09996 16 8.99996C15.7 14.7 19.8 18.9 24.6 21.2C20.7 24.5 17.5 30.3 20.9 35.1ZM28 20.3C33.3 17.4 40.2 17.9 46.1 19.3C44.2 20.2 42.3 20.9 40.3 21.4C37.8 21.8 35.3 21.8 32.9 21.4C31.3 21.2 29.6 20.9 28 20.3Z" fill="white"/>
<path d="M0.299998 21.6C2.7 22.5 5.3 23 7.8 22.9C9.8 23 11.9 23 13.9 22.9C11.2 24.7 9.4 27.5 8.7 30.6C8.6 31.2 9 31.5 9.6 31.4C14.1 30.3 19.5 26.3 19.9 21.4V21.3C20 21.2 20 21 19.9 20.8C17.6 17.3 13.2 13.2 9 12.2C8.6 12.2 8.2 12.3 8 12.6C6.7 14.5 9 16.3 10.4 17.5C11.5 18.5 12.7 19.3 14 20C9.7 19.7 5.3 18.8 0.899998 20C0.499998 20.2 -0.500002 21.3 0.299998 21.6ZM17 19.3C15.7 18.8 14.5 18.2 13.3 17.4C12 16.5 10.8 15.4 9.6 14.3C12.4 15.3 14.9 17.1 17 19.3ZM17.8 22.9C16.1 25.9 14.1 28.2 10.8 29.4C11.8 26.1 14.5 23.6 17.8 22.9ZM5.4 21C6.7 21 8.1 21.1 9.4 21.2C8 21.2 6.7 21.2 5.4 21Z" fill="white"/>
<path d="M57.2 20.7C88.6 21.4 120.1 20.9 151.5 20.9L242 21H296.2C297.5 21 296.7 19.2 295.7 19.2H295.4C294.1 19.2 294.9 21 295.9 21C298.6 21 301.2 21 303.9 20.9C305.2 20.9 304.2 18.9 303.1 19.4C303.4 19.3 303.5 19.2999 303.2 19.2999C302 19.2999 302.8 20.9 303.6 20.9C303.8 20.9 303.8 20.9 303.6 20.9C304.8 21.3 304.5 19.4 303.4 19.4C300.7 19.3 298 19.2999 295.4 19.2999C294.1 19.2999 294.9 21.1 295.9 21.1H296.2C297.5 21.1 296.7 19.2999 295.7 19.2999C234.1 19.2999 172.5 19.3 111 19.4C92.9 19.4 74.9 19.2 56.8 19.6C56 19.5 56.5 20.7 57.2 20.7Z" fill="white"/>
</g>
<defs>
<clipPath id="clip0_36_83">
<rect width="360.6" height="37.9" fill="white"/>
</clipPath>
</defs>
</svg>
