<svg width="2500" height="2500" viewBox="0 0 2500 2500" fill="none" xmlns="http://www.w3.org/2000/svg">
<path fill-rule="evenodd" clip-rule="evenodd" d="M0 1250C0 559.644 559.644 0 1250 0V0C1940.36 0 2500 559.644 2500 1250V1250C2500 1940.36 1940.36 2500 1250 2500V2500C559.644 2500 0 1940.36 0 1250V1250Z" fill="white"/>
<path fill-rule="evenodd" clip-rule="evenodd" d="M1379.74 1348.88L1434.91 1351.86L1394.03 1296.74C1386.91 1287.85 1378.02 1273.63 1365.59 1252.28L1342.46 1197.16H1324.71V1252.28C1324.71 1275.39 1328.25 1287.85 1333.58 1287.85H1354.93V1302.07H1246.46V1287.85H1262.46C1264.24 1287.85 1266 1286.06 1266 1284.29V1106.49C1266 1095.83 1264.23 1088.71 1262.46 1086.93C1260.03 1084.71 1256.87 1083.45 1253.57 1083.38H1237.57V1069.15H1354.93C1370.9 1069.15 1386.92 1072.7 1399.36 1078.05C1424.26 1090.5 1436.7 1110.06 1436.7 1140.28C1436.7 1149.16 1433.16 1156.28 1427.8 1165.16C1418.93 1177.6 1404.7 1184.72 1388.69 1186.5C1395.81 1198.95 1431.37 1255.85 1497.15 1355.41L1550.47 1357.2L1511.35 1310.97C1488.25 1280.74 1475.82 1257.63 1474.01 1245.19C1472.24 1225.63 1477.58 1211.4 1486.48 1198.96C1497.14 1186.51 1513.13 1181.18 1532.7 1181.18C1559.38 1181.18 1577.14 1204.29 1586.02 1252.3C1571.81 1216.73 1548.68 1204.29 1518.46 1216.73C1509.56 1220.29 1502.46 1225.63 1500.68 1230.96L1498.9 1241.63C1498.9 1254.09 1504.25 1264.75 1516.68 1273.64C1529.12 1284.31 1545.13 1289.64 1564.69 1289.64C1584.24 1289.64 1600.25 1284.31 1612.69 1275.41C1625.12 1262.97 1632.24 1248.74 1632.24 1230.96C1632.24 1218.52 1628.7 1207.85 1619.81 1198.96C1610.04 1191.53 1599.26 1185.54 1587.78 1181.18L1546.9 1166.95C1530.93 1159.85 1518.46 1152.73 1509.56 1145.62C1488.23 1129.61 1477.57 1106.5 1477.57 1079.84C1477.57 1049.6 1491.78 1024.72 1518.45 1008.72C1541.57 992.719 1568.23 985.611 1600.25 985.611C1626.93 985.611 1648.25 989.165 1666.03 994.496L1669.57 1037.18C1671.35 1044.29 1667.8 1047.85 1662.45 1047.85C1657.13 1047.85 1653.58 1044.3 1651.79 1037.18C1650.01 1028.28 1642.89 1019.4 1632.23 1014.07C1623.33 1008.74 1610.9 1006.96 1598.46 1006.96C1582.45 1006.96 1570.02 1010.51 1559.34 1017.62C1546.88 1026.52 1539.76 1038.97 1539.76 1054.96C1539.76 1065.63 1543.32 1074.52 1552.22 1081.64C1557.54 1086.97 1568.2 1092.3 1582.44 1097.63L1623.32 1113.64C1639.33 1118.97 1653.57 1127.86 1666.01 1136.75C1675.1 1145.95 1682.35 1156.81 1687.34 1168.74C1692.68 1181.2 1696.24 1193.63 1696.24 1206.08C1696.24 1246.98 1682.02 1275.43 1653.58 1291.44C1628.68 1303.88 1589.56 1311 1537.99 1311C1534.45 1311 1536.22 1316.33 1543.34 1325.22C1548.65 1335.89 1557.55 1346.57 1570.02 1357.23L1710.48 1364.34L1827.82 1378.57C1826.04 1383.91 1754.91 1389.24 1614.45 1394.57C1634.03 1407.01 1655.36 1414.13 1674.92 1419.46C1712.26 1426.57 1746.02 1426.57 1774.47 1419.46C1792.25 1414.13 1815.38 1403.46 1843.83 1387.45C1875.83 1369.67 1900.73 1357.23 1920.29 1350.11C1955.85 1337.68 1996.75 1332.33 2042.97 1332.33C2078.53 1332.33 2106.99 1337.68 2128.31 1350.11C2146.09 1360.77 2156.76 1373.23 2160.33 1389.24C2163.88 1405.24 2160.33 1417.67 2151.44 1430.12C2140.75 1442.58 2124.76 1447.91 2105.21 1447.91C2138.99 1399.9 2110.53 1369.67 2019.87 1359.01C1993.19 1357.23 1966.53 1359.01 1941.63 1364.34C1922.07 1367.9 1902.51 1375.02 1879.41 1387.45L1822.51 1414.13C1799.39 1424.79 1779.83 1431.91 1762.05 1433.69C1724.71 1439.02 1685.59 1435.47 1648.26 1423.03C1626.93 1414.13 1607.38 1405.25 1591.36 1394.59L1523.8 1396.36L1662.46 1607.94L1557.57 1506.61C1552.25 1506.61 1523.79 1472.82 1472.22 1403.47L1468.68 1398.14L1401.12 1401.62V1403.48C1401.12 1403.6 1400.92 1405.11 1400.89 1405.21L1400.86 1405.31C1399.67 1409.9 1397.83 1414.29 1395.39 1418.36L1395.42 1418.37C1389.31 1428.41 1379.46 1436.28 1366.61 1441.99L1366.4 1442.1C1361.4 1444.28 1356.19 1445.97 1350.85 1447.14C1336.28 1450.31 1321.15 1449.89 1306.78 1445.91L1306.7 1445.88C1301 1444.31 1295.43 1442.28 1290.06 1439.8C1277.43 1434.05 1266.16 1425.67 1257.03 1415.21H1257.04C1250.13 1407.28 1245.64 1399.27 1243.37 1391.18C1241.07 1383.02 1240.97 1374.4 1243.09 1366.2L1243.11 1366.09C1244.27 1361.49 1246.12 1357.1 1248.6 1353.06L1248.59 1353.04C1254.7 1343.01 1264.53 1335.12 1277.37 1329.43L1278 1329.17L1278.24 1329.09C1280.54 1328.34 1283 1327.62 1285.65 1326.96V1326.95C1288.18 1326.31 1290.79 1325.77 1293.46 1325.32C1307.91 1322.8 1322.74 1323.44 1336.91 1327.21C1340.64 1327.79 1344.32 1328.61 1347.93 1329.67C1357.51 1332.57 1366.56 1337.18 1373.6 1342.81L1374.16 1343.34L1379.74 1348.88V1348.88ZM1386.91 1402.62V1398.09L1386.99 1397.09C1387.76 1391.9 1387.32 1386.6 1385.72 1381.6C1384.02 1376.34 1380.98 1370.99 1376.36 1365.59L1364.56 1353.78C1358.37 1349.01 1351.34 1345.44 1343.84 1343.25C1342.31 1342.79 1340.76 1342.37 1339.21 1342.01H1339.18C1337.64 1341.66 1336.09 1341.38 1334.52 1341.16L1334.34 1341.14L1333.49 1340.96C1318.96 1337.07 1303.69 1336.98 1289.12 1340.68H1289.09C1287.04 1341.2 1284.91 1341.83 1282.76 1342.54C1272.8 1347.03 1265.28 1352.99 1260.78 1360.39H1260.75C1259.9 1361.81 1259.13 1363.3 1258.5 1364.78C1257.87 1366.32 1257.35 1367.9 1256.94 1369.5L1256.91 1369.61C1255.42 1375.53 1255.42 1381.44 1257.07 1387.3C1258.79 1393.42 1262.32 1399.61 1267.79 1405.9L1267.87 1405.95C1275.66 1414.85 1285.27 1421.98 1296.04 1426.87C1300.7 1429.01 1305.53 1430.77 1310.48 1432.12L1310.56 1432.15C1322.72 1435.54 1335.52 1435.93 1347.87 1433.28C1352.28 1432.27 1356.59 1430.85 1360.74 1429.05L1360.97 1428.94C1371.1 1424.44 1378.75 1418.43 1383.29 1410.93H1383.32C1384.93 1408.36 1386.14 1405.55 1386.91 1402.62V1402.62ZM1365.57 1172.29C1358.45 1179.39 1347.79 1182.96 1333.55 1182.96H1324.68V1090.5C1324.68 1088.72 1326.46 1086.94 1331.77 1086.94C1344.24 1086.94 1356.68 1092.27 1365.56 1102.95C1374.44 1113.62 1378 1126.06 1378 1138.51C1378.01 1152.73 1374.47 1163.4 1365.57 1172.29V1172.29ZM1938.1 1069.16V1083.39H1925.66L1920.32 1085.18L1918.54 1090.51V1252.31C1918.54 1275.42 1922.08 1287.87 1927.44 1287.87H1947V1302.1H1840.32V1287.87H1856.3C1858.07 1287.87 1859.84 1286.08 1859.84 1284.32V1184.75H1781.62V1252.31C1781.62 1275.42 1785.18 1287.87 1790.51 1287.87H1811.85V1302.1H1703.41V1287.87H1719.41C1721.19 1287.87 1722.96 1286.08 1722.96 1284.32V1106.49C1722.96 1095.83 1721.18 1088.71 1719.41 1086.93C1717.61 1085.15 1715.85 1083.38 1712.29 1083.38H1694.51V1069.15H1802.98V1083.38H1788.74L1783.39 1085.17L1781.62 1090.5V1168.72H1859.84V1106.49C1859.84 1095.83 1858.06 1088.71 1856.3 1086.93C1854.52 1085.15 1852.76 1083.38 1849.18 1083.38H1831.4V1069.15H1938.1V1069.16V1069.16ZM1977.2 1278.96C2000.3 1298.52 2028.78 1309.19 2064.32 1309.19C2108.78 1309.19 2142.57 1293.19 2165.67 1262.97C2185.22 1239.86 2194.11 1211.4 2194.11 1179.39C2194.11 1143.83 2183.45 1115.39 2160.33 1094.05C2137.21 1072.72 2108.75 1062.04 2073.19 1062.04C2028.76 1062.04 1994.97 1078.05 1971.85 1108.28C1952.29 1133.17 1943.4 1161.61 1943.4 1191.84C1943.42 1229.18 1954.1 1257.63 1977.2 1278.96ZM2188.8 1069.16V1083.39H2206.56C2210.13 1083.39 2211.9 1085.18 2213.68 1086.94C2215.46 1088.72 2217.25 1095.84 2217.25 1106.5V1284.31C2217.25 1286.08 2215.44 1287.86 2213.68 1287.86H2197.7V1302.09H2306.14V1287.86H2284.81C2279.46 1287.86 2275.91 1275.41 2275.91 1252.3V1193.62L2306.13 1197.17C2332.81 1197.17 2354.13 1190.07 2370.15 1175.84C2382.58 1163.4 2389.71 1149.16 2389.71 1133.17C2389.71 1117.16 2384.36 1104.73 2371.92 1092.27C2357.71 1076.28 2336.36 1069.16 2307.9 1069.16H2188.8V1069.16ZM2059 1078.05C2085.68 1078.05 2107 1094.05 2119.44 1127.84C2130.1 1152.73 2135.45 1181.17 2135.45 1211.4C2135.45 1234.51 2131.91 1252.3 2124.78 1266.52C2114.12 1284.31 2098.11 1293.2 2078.56 1293.2C2051.88 1293.2 2030.56 1277.21 2016.32 1245.2C2007.42 1220.31 2002.1 1191.86 2002.1 1159.86C2002.1 1138.51 2005.64 1120.73 2012.76 1106.52C2021.66 1086.94 2037.64 1078.05 2059 1078.05V1078.05ZM2318.58 1102.95C2327.48 1113.62 2331.04 1126.06 2331.04 1140.29C2331.04 1152.73 2327.48 1161.62 2320.38 1168.73C2311.48 1177.63 2302.6 1181.18 2290.14 1181.18L2275.92 1177.63V1090.5C2275.92 1088.72 2279.46 1086.94 2284.82 1086.94C2299.02 1086.94 2309.68 1092.27 2318.58 1102.95V1102.95ZM1468.7 1376.75L1472.24 1367.86L1481.13 1364.3C1484.7 1364.3 1488.25 1366.09 1490.03 1367.86L1493.6 1376.75C1493.6 1380.29 1491.8 1383.87 1490.03 1385.65C1488.27 1387.43 1484.71 1389.2 1481.13 1389.2L1472.24 1385.65C1470.02 1383.21 1468.77 1380.05 1468.7 1376.75ZM133.42 1012.26C138.751 1012.26 142.304 1014.04 144.081 1015.82C147.635 1021.15 149.412 1030.05 149.412 1042.48V1278.96C149.412 1280.74 145.858 1282.52 140.514 1282.52L117.402 1284.29V1302.07H225.869L275.646 1300.3C295.205 1298.51 311.21 1294.95 323.648 1289.62C341.429 1284.29 355.657 1275.39 366.318 1262.96C376.841 1249.18 382.473 1232.28 382.323 1214.94C382.323 1170.5 353.88 1142.04 296.969 1129.59C318.317 1124.26 334.309 1117.15 343.193 1110.03C359.198 1097.58 368.082 1081.59 368.082 1062.02C368.082 1049.58 362.751 1037.13 353.854 1024.68C336.073 1005.13 307.63 994.444 266.736 994.444H110.295V1012.23H133.42V1012.26V1012.26ZM469.454 1070.94L425.006 1172.27C398.327 1236.29 384.113 1273.62 380.546 1282.52C380.546 1284.29 378.769 1286.06 376.992 1287.85H359.224V1302.07H432.127V1287.85H405.448L403.671 1282.52C403.671 1277.18 407.225 1264.73 412.568 1248.74L423.229 1222.06H492.579C506.807 1262.96 513.927 1282.52 513.927 1284.29C513.927 1286.07 512.15 1287.85 508.583 1287.85H492.579V1302.07H599.268V1287.85H588.594C583.263 1287.85 579.697 1286.06 577.92 1280.73L565.482 1254.06L526.352 1150.94C510.36 1110.04 503.24 1086.92 503.24 1083.36L508.57 1076.26C510.347 1074.48 512.124 1072.7 512.124 1070.93C512.124 1067.37 510.347 1065.58 506.781 1065.58L469.454 1070.94V1070.94ZM238.319 1015.82C256.101 1015.82 270.329 1021.15 282.767 1033.6C295.205 1046.04 300.548 1062.04 300.548 1079.82C300.548 1090.5 298.772 1099.38 295.218 1106.49C289.887 1115.39 282.78 1122.49 273.883 1124.27L225.881 1120.72V1021.15C225.869 1017.59 229.422 1015.82 238.319 1015.82V1015.82ZM225.869 1204.29V1138.51C256.101 1138.51 277.436 1147.41 291.651 1166.95C302.325 1181.18 307.656 1197.19 307.656 1214.97C307.656 1232.75 302.312 1248.75 291.651 1261.19C279.213 1273.64 264.985 1280.75 247.204 1280.75L236.53 1278.97C233.353 1277.58 230.816 1275.04 229.422 1271.87C227.645 1262.97 225.869 1241.62 225.869 1204.29V1204.29ZM428.56 1206.06L460.556 1133.17L487.235 1206.06H428.56ZM625.921 1106.49V1284.29C625.857 1285.21 625.463 1286.08 624.809 1286.73C624.156 1287.39 623.289 1287.78 622.367 1287.85H606.375V1302.07H714.829V1287.85H693.493C688.163 1287.85 684.596 1275.39 684.596 1252.28V1197.16H702.378L727.267 1252.28C737.941 1273.63 746.825 1287.85 755.709 1296.74C757.486 1298.52 759.263 1300.3 762.83 1302.07H832.166V1287.85C825.059 1287.85 817.938 1284.29 812.608 1278.95C793.049 1259.39 773.491 1227.38 750.379 1186.49C766.37 1184.71 778.821 1177.6 787.719 1165.15C794.826 1156.25 798.38 1149.15 798.38 1140.26C798.38 1110.03 785.942 1090.48 759.263 1078.03C745.796 1072.19 731.274 1069.16 716.593 1069.14H597.465V1083.36H615.247C618.8 1083.36 620.59 1085.15 622.354 1086.92C624.144 1088.72 625.921 1095.83 625.921 1106.49V1106.49ZM693.48 1086.94C705.918 1086.94 716.592 1092.27 725.49 1102.95C734.374 1113.62 737.928 1126.06 737.928 1138.51C737.928 1152.74 734.374 1163.4 727.254 1172.29C718.356 1179.39 707.695 1182.96 695.244 1182.96H684.583V1090.5C684.596 1088.72 688.15 1086.94 693.48 1086.94V1086.94ZM860.609 1106.49V1284.29C860.545 1285.21 860.15 1286.08 859.497 1286.73C858.844 1287.39 857.977 1287.78 857.055 1287.85H841.05V1302.07H919.284C953.057 1302.07 977.959 1298.52 992.187 1293.18C1022.41 1282.52 1036.63 1262.96 1036.63 1236.28C1036.63 1202.5 1015.3 1181.16 972.616 1172.26C988.62 1166.93 999.295 1161.6 1008.18 1156.27C1020.62 1147.37 1025.96 1136.71 1025.96 1120.7C1025.96 1111.82 1022.41 1102.92 1015.29 1094.04C1002.85 1078.03 979.723 1069.15 949.504 1069.15H832.153V1083.38H849.935C853.488 1083.38 855.278 1085.17 857.055 1086.93C858.832 1088.72 860.609 1095.83 860.609 1106.49V1106.49ZM1056.21 1083.38H1038.41V1069.15H1225.11L1221.56 1106.49C1219.78 1110.04 1218 1111.83 1214.45 1111.83C1210.9 1111.83 1209.11 1110.06 1209.11 1104.73L1205.55 1097.61L1198.45 1092.27L1168.21 1086.94H1127.32L1125.54 1092.27V1168.73H1145.1C1164.66 1168.73 1177.11 1166.95 1182.44 1165.19C1185.99 1163.41 1187.77 1159.86 1187.77 1154.52V1142.08H1200.22V1206.08H1187.77V1200.74C1187.77 1193.62 1185.99 1190.07 1184.22 1188.3C1180.66 1186.51 1171.77 1184.75 1157.55 1184.75H1125.54V1229.2C1125.54 1252.31 1125.54 1268.31 1127.32 1277.21C1129.11 1282.54 1130.87 1286.09 1134.43 1286.09L1189.55 1282.55C1209.11 1279 1219.78 1271.89 1225.11 1263L1232.23 1257.65C1235.79 1257.65 1237.56 1259.44 1237.56 1263C1237.56 1268.33 1234.01 1280.76 1226.89 1302.11H1047.31V1287.88H1063.31C1065.09 1287.88 1066.87 1286.09 1066.87 1284.33V1106.49C1066.87 1095.83 1065.08 1088.71 1063.31 1086.93C1061.54 1085.17 1059.75 1083.38 1056.21 1083.38V1083.38ZM954.86 1166.95L919.297 1165.18V1090.5C919.297 1088.72 922.851 1086.94 928.194 1086.94C940.632 1086.94 953.083 1090.5 961.967 1099.4C970.852 1108.29 974.418 1120.73 974.418 1134.95C974.418 1142.07 972.629 1149.17 970.865 1154.5C967.298 1161.61 961.955 1165.18 954.86 1166.95V1166.95ZM935.289 1286.07L926.404 1284.29C924.628 1284.29 922.851 1282.52 922.851 1278.96C921.061 1273.63 919.297 1255.85 919.297 1229.18V1179.39C940.632 1179.39 956.637 1186.5 969.075 1200.74C977.972 1211.4 981.526 1223.85 981.526 1236.3C981.526 1248.75 976.182 1261.19 967.298 1270.08C958.401 1280.74 947.74 1286.07 935.289 1286.07V1286.07Z" fill="black"/>
</svg>
