<?xml version="1.0" encoding="utf-8"?><svg viewBox="0 0 512 512" xmlns="http://www.w3.org/2000/svg" xmlns:xlink="http://www.w3.org/1999/xlink"><style>:root>svg{display:none}:root>svg:target{display:block}</style><svg viewBox="0 0 512 512" id="arrow-left" xmlns="http://www.w3.org/2000/svg"><!--! Font Awesome Pro 6.0.0 by @fontawesome - https://fontawesome.com License - https://fontawesome.com/license (Commercial License) Copyright 2022 Fonticons, Inc.--><path d="M9.375 233.4l128-128c12.5-12.5 32.75-12.5 45.25 0s12.5 32.75 0 45.25L109.3 224H480c17.69 0 32 14.31 32 32s-14.31 32-32 32H109.3l73.38 73.38c12.5 12.5 12.5 32.75 0 45.25-12.49 12.49-32.74 12.51-45.25 0l-128-128C-3.125 266.1-3.125 245.9 9.375 233.4z"/></svg><svg viewBox="0 0 512 512" id="arrow-right" xmlns="http://www.w3.org/2000/svg"><!--! Font Awesome Pro 6.0.0 by @fontawesome - https://fontawesome.com License - https://fontawesome.com/license (Commercial License) Copyright 2022 Fonticons, Inc.--><path d="M502.6 278.6l-128 128c-12.51 12.51-32.76 12.49-45.25 0-12.5-12.5-12.5-32.75 0-45.25L402.8 288H32c-17.69 0-32-14.3-32-32.9S14.31 224 32 224h370.8l-73.38-73.38c-12.5-12.5-12.5-32.75 0-45.25s32.75-12.5 45.25 0l128 128c12.43 12.53 12.43 32.73-.07 45.23z"/></svg><svg viewBox="0 0 13 12" id="blog-link-arrow" xmlns="http://www.w3.org/2000/svg"><path fill-rule="evenodd" clip-rule="evenodd" d="M0 6c0-.227.086-.445.238-.606a.792.792 0 01.574-.251h9.413L6.737 1.465a.883.883 0 01-.239-.607c0-.228.086-.446.239-.607A.793.793 0 017.312 0c.215 0 .422.09.575.251l4.874 5.142a.9.9 0 010 1.213L7.887 11.75a.793.793 0 01-.575.251.793.793 0 01-.575-.251.883.883 0 01-.239-.607c0-.228.086-.446.239-.607l3.488-3.678H.812a.792.792 0 01-.574-.251A.881.881 0 010 6z"/></svg><svg viewBox="0 0 50 50" id="facebook" xmlns="http://www.w3.org/2000/svg"><path fill-rule="evenodd" clip-rule="evenodd" d="M0 25.14C0 37.569 9.027 47.904 20.833 50V31.944h-6.25V25h6.25v-5.556c0-6.25 4.027-9.721 9.723-9.721 1.804 0 3.75.277 5.554.554v6.39h-3.193c-3.057 0-3.75 1.527-3.75 3.473V25h6.666l-1.11 6.944h-5.556V50C40.973 47.904 50 37.57 50 25.14 50 11.312 38.75 0 25 0S0 11.313 0 25.14z"/></svg><svg viewBox="0 0 512 512" id="icon-phone" xmlns="http://www.w3.org/2000/svg"><!--! Font Awesome Pro 6.0.0 by @fontawesome - https://fontawesome.com License - https://fontawesome.com/license (Commercial License) Copyright 2022 Fonticons, Inc.--><path d="M511.2 387l-23.25 100.8c-3.266 14.25-15.79 24.22-30.46 24.22C205.2 512 0 306.8 0 54.5c0-14.66 9.969-27.2 24.22-30.45L125.02.8c14.68-3.402 29.68 4.218 35.78 18.12l46.52 108.5c5.438 12.78 1.77 27.67-8.98 36.45L144.5 207.1c33.98 69.22 90.26 125.5 159.5 159.5l44.08-53.8c8.688-10.78 23.69-14.51 36.47-8.975l108.5 46.51C506.1 357.2 514.6 372.4 511.2 387z"/></svg><svg viewBox="0 0 50 50" id="icon-vk" xmlns="http://www.w3.org/2000/svg"><path d="M3.515 3.515C0 7.029 0 12.686 0 24v2c0 11.313 0 16.97 3.515 20.485C7.029 50 12.686 50 24 50h2c11.313 0 16.97 0 20.485-3.515C50 42.971 50 37.313 50 26v-2c0-11.313 0-16.97-3.515-20.485C42.971 0 37.313 0 26 0h-2C12.687 0 7.03 0 3.515 3.515zm4.922 11.693h5.709c.187 9.542 4.396 13.584 7.729 14.417V15.208h5.375v8.23c3.292-.355 6.75-4.105 7.917-8.23h5.375a15.878 15.878 0 01-7.313 10.375 16.445 16.445 0 018.563 10.438h-5.917a10.285 10.285 0 00-8.625-7.438v7.438h-.646c-11.396 0-17.896-7.813-18.166-20.813z"/></svg><svg viewBox="0 0 50 50" id="insta" xmlns="http://www.w3.org/2000/svg"><path d="M24.993 16.663c-4.59 0-8.336 3.746-8.336 8.337 0 4.59 3.746 8.336 8.336 8.336S33.33 29.59 33.33 25c0-4.591-3.746-8.337-8.337-8.337zM49.997 25c0-3.453.032-6.874-.162-10.32-.194-4.002-1.107-7.555-4.034-10.482C42.867 1.265 39.32.358 35.319.164c-3.453-.193-6.874-.162-10.32-.162-3.452 0-6.873-.031-10.319.162-4.002.194-7.555 1.107-10.482 4.034C1.265 7.132.358 10.678.164 14.68-.029 18.133.002 21.553.002 25c0 3.445-.031 6.873.162 10.319.194 4.002 1.107 7.555 4.034 10.482 2.934 2.933 6.48 3.84 10.482 4.034 3.453.194 6.873.162 10.32.162 3.452 0 6.873.032 10.319-.162 4.002-.194 7.555-1.107 10.482-4.034 2.933-2.934 3.84-6.48 4.034-10.482.2-3.446.162-6.867.162-10.32zM24.993 37.827A12.81 12.81 0 0112.166 25a12.81 12.81 0 0112.827-12.828A12.81 12.81 0 0137.821 25a12.81 12.81 0 01-12.828 12.827zm13.353-23.184a2.992 2.992 0 01-2.996-2.996 2.992 2.992 0 012.996-2.996 2.992 2.992 0 012.996 2.996 2.991 2.991 0 01-2.996 2.996z"/></svg><svg viewBox="0 0 104 60" id="logo" xmlns="http://www.w3.org/2000/svg"><path d="M5.5 12.512c1.786 0 3.08.416 3.879 1.242.8.83 1.198 2.084 1.198 3.761v.777c0 1.12-.176 2.04-.528 2.768-.352.725-.914 1.264-1.683 1.616.936.35 1.593.927 1.976 1.726.383.798.578 1.778.578 2.938v1.772c0 1.68-.436 2.96-1.31 3.84-.87.883-2.17 1.323-3.893 1.323H.332V12.512h5.169zm-1.744 3.11v5.753h1.34c.643 0 1.146-.167 1.51-.497.365-.332.547-.934.547-1.803V17.86c0-.785-.14-1.356-.42-1.71-.281-.352-.723-.527-1.325-.527H3.756zm0 8.86v6.683h1.961c.58 0 1.022-.154 1.325-.465.3-.312.45-.87.45-1.68v-1.896c0-1.014-.17-1.711-.512-2.084-.343-.373-.908-.561-1.698-.561H3.756v.003zM13.535 17.737c0-1.76.448-3.113 1.34-4.056.892-.944 2.18-1.415 3.863-1.415 1.682 0 2.967.471 3.862 1.415.892.943 1.34 2.296 1.34 4.056v11.316c0 1.764-.448 3.114-1.34 4.057-.892.943-2.18 1.415-3.863 1.415-1.682 0-2.97-.472-3.862-1.415-.892-.943-1.34-2.296-1.34-4.057V17.737zm3.424 11.535c0 .79.16 1.341.482 1.665.32.32.753.48 1.293.48.54 0 .97-.16 1.294-.48.321-.32.482-.876.482-1.665V17.518c0-.786-.16-1.34-.482-1.664-.321-.32-.753-.481-1.294-.481-.54 0-.97.16-1.293.48-.321.321-.482.876-.482 1.665v11.754zM33.96 34.275c-.044-.145-.084-.28-.124-.404a2.916 2.916 0 01-.108-.465 5.548 5.548 0 01-.062-.715c-.01-.29-.015-.654-.015-1.088v-3.419c0-1.014-.177-1.73-.529-2.145-.351-.413-.923-.623-1.713-.623h-1.183v8.86h-3.424V12.511h5.169c1.784 0 3.078.416 3.878 1.242.8.83 1.198 2.084 1.198 3.761v1.711c0 2.238-.747 3.712-2.242 4.414.871.352 1.47.928 1.791 1.727.321.798.482 1.766.482 2.906v3.357c0 .54.021 1.012.061 1.415.04.404.146.814.312 1.227H33.96v.003zm-3.737-18.652v6.683h1.34c.643 0 1.146-.167 1.51-.497.364-.33.547-.934.547-1.803V17.86c0-.785-.14-1.356-.42-1.71-.281-.352-.723-.527-1.325-.527h-1.652zM39.758 17.737c0-1.76.447-3.113 1.34-4.056.892-.944 2.18-1.415 3.862-1.415 1.683 0 2.968.471 3.863 1.415.892.943 1.34 2.296 1.34 4.056v11.316c0 1.764-.448 3.114-1.34 4.057-.892.943-2.18 1.415-3.863 1.415-1.682 0-2.97-.472-3.862-1.415-.892-.943-1.34-2.296-1.34-4.057V17.737zm3.427 11.535c0 .79.16 1.341.482 1.665.32.32.753.48 1.293.48.54 0 .97-.16 1.294-.48.321-.32.482-.876.482-1.665V17.518c0-.786-.16-1.34-.482-1.664-.321-.32-.753-.481-1.294-.481-.54 0-.97.16-1.293.48-.321.321-.482.876-.482 1.665v11.754zM53.022 12.512h5.419c1.723 0 3.004.457 3.847 1.369.84.912 1.26 2.25 1.26 4.01v11.005c0 1.763-.42 3.098-1.26 4.01-.84.913-2.124 1.37-3.847 1.37h-5.419V12.511zm3.424 3.11v15.546h1.93c.54 0 .966-.154 1.278-.465.312-.312.466-.86.466-1.65V17.737c0-.786-.154-1.338-.466-1.649-.312-.311-.738-.465-1.278-.465h-1.93zM77.584 34.275h-3.458l-.593-3.948h-4.206l-.592 3.948h-3.147l3.49-21.763h5.014l3.492 21.763zm-7.815-6.902h3.3L71.419 16.37l-1.649 11.004zM89.863 26.162v2.891c0 1.764-.432 3.114-1.294 4.057-.861.943-2.133 1.415-3.816 1.415-1.683 0-2.955-.472-3.813-1.415-.861-.943-1.294-2.296-1.294-4.057V17.737c0-1.76.43-3.113 1.294-4.056.861-.944 2.133-1.415 3.813-1.415 1.683 0 2.952.471 3.816 1.415.862.943 1.294 2.296 1.294 4.056v2.115h-3.239v-2.33c0-.787-.16-1.341-.481-1.665-.322-.32-.754-.481-1.294-.481s-.97.16-1.294.48c-.321.321-.482.876-.482 1.665v11.751c0 .79.161 1.338.482 1.65.321.31.753.465 1.294.465.54 0 .97-.154 1.293-.466.322-.31.482-.86.482-1.649v-3.11h3.24zM96.044 34.275H92.62V12.512h3.424v9.328h3.894v-9.328h3.489v21.763h-3.49v-9.324h-3.892v9.324zM20.911.092c.66 0 1.136.155 1.433.46.296.305.441.77.441 1.39v.287c0 .413-.065.755-.194 1.023-.13.268-.337.469-.621.598.346.13.59.342.732.638.142.296.213.657.213 1.085v.654c0 .62-.16 1.094-.485 1.418-.321.327-.803.487-1.439.487H19V.092h1.911zm-.645 1.15v2.124h.494c.237 0 .423-.061.558-.185.133-.123.201-.345.201-.666v-.447c0-.29-.052-.502-.154-.632-.105-.129-.266-.194-.488-.194h-.611zm0 3.274v2.47h.725c.216 0 .377-.06.488-.173.111-.115.167-.321.167-.62v-.7c0-.376-.065-.632-.192-.77-.126-.14-.336-.207-.626-.207h-.562zM30.069 8.135H28.79l-.22-1.458h-1.553l-.216 1.458h-1.164L26.926.092h1.852l1.29 8.043zm-2.887-2.55h1.22l-.609-4.065-.611 4.066zM35.605 8.135a2.896 2.896 0 00-.046-.148 1.317 1.317 0 01-.04-.173 1.86 1.86 0 01-.022-.265c-.003-.108-.006-.24-.006-.4V5.885c0-.376-.065-.638-.195-.793-.13-.154-.343-.23-.633-.23h-.438v3.273h-1.266V.092h1.911c.66 0 1.136.155 1.433.46.296.305.441.77.441 1.39v.632c0 .826-.275 1.372-.827 1.63.32.13.543.343.66.639.118.296.18.653.18 1.072v1.243c0 .2.006.373.021.524.016.148.053.302.114.453h-1.287zm-1.38-6.893v2.47h.494c.237 0 .423-.062.559-.186.132-.123.2-.345.2-.665v-.793c0-.29-.052-.502-.154-.632-.105-.129-.266-.194-.488-.194h-.611zM41.798.092c.661 0 1.137.155 1.433.46.297.305.442.77.442 1.39v.287c0 .413-.065.755-.195 1.023-.13.268-.337.469-.62.598.345.13.59.342.731.638.142.296.213.657.213 1.085v.654c0 .62-.16 1.094-.484 1.418-.322.327-.803.487-1.44.487h-1.99V.092h1.91zm-.645 1.15v2.124h.494c.238 0 .423-.061.559-.185.133-.123.2-.345.2-.666v-.447c0-.29-.052-.502-.154-.632-.105-.129-.265-.194-.488-.194h-.61zm0 3.274v2.47h.726c.216 0 .376-.06.488-.173.11-.115.166-.321.166-.62v-.7c0-.376-.065-.632-.191-.77-.127-.14-.337-.207-.627-.207h-.562zM48.125 3.483h1.738v1.15h-1.738v2.355h2.186v1.15H46.86V.092h3.452v1.15h-2.186v2.241zM56.045 8.135c-.016-.052-.031-.105-.047-.148a1.317 1.317 0 01-.04-.173 1.862 1.862 0 01-.021-.265c-.003-.108-.006-.24-.006-.4V5.885c0-.376-.065-.638-.195-.793-.13-.154-.343-.23-.633-.23h-.438v3.273h-1.266V.092h1.91c.662 0 1.137.155 1.434.46.296.305.441.77.441 1.39v.632c0 .826-.275 1.372-.827 1.63.32.13.543.343.66.639.118.296.18.653.18 1.072v1.243c0 .2.006.373.021.524.015.148.052.302.114.453h-1.287zm-1.38-6.893v2.47h.494c.237 0 .423-.062.559-.186.132-.123.2-.345.2-.665v-.793c0-.29-.052-.502-.154-.632-.105-.129-.266-.194-.488-.194h-.611zM60.163 2.022c0-.65.155-1.15.467-1.498.312-.348.778-.524 1.398-.524.621 0 1.087.173 1.4.524.31.348.465.848.465 1.498v.253h-1.198v-.333c0-.29-.055-.496-.166-.613-.112-.12-.266-.18-.467-.18-.2 0-.355.06-.466.18-.111.12-.167.323-.167.613 0 .274.062.518.186.73.123.21.274.41.46.599.185.188.383.376.593.564.21.188.407.391.592.613.186.222.337.475.46.758.124.284.186.617.186 1 0 .65-.16 1.149-.479 1.497-.318.349-.787.524-1.41.524-.625 0-1.09-.172-1.412-.524-.318-.348-.478-.847-.478-1.498v-.493h1.197v.573c0 .293.06.494.18.61a.66.66 0 00.478.173c.2 0 .358-.058.479-.172.12-.114.179-.318.179-.61 0-.275-.062-.518-.185-.731a3.194 3.194 0 00-.46-.598 13.107 13.107 0 00-.593-.564 5.887 5.887 0 01-.593-.614 3.11 3.11 0 01-.46-.758 2.486 2.486 0 01-.185-.999zM68.197 8.135h-1.266V.092h1.266V3.54h1.44V.092h1.287v8.043h-1.288V4.689h-1.439v3.446zM74.042 2.022c0-.65.164-1.15.494-1.498.33-.348.806-.524 1.427-.524.62 0 1.096.173 1.426.524.33.348.494.848.494 1.498v4.183c0 .65-.163 1.15-.494 1.498-.33.349-.806.524-1.426.524-.62 0-1.096-.172-1.427-.524-.33-.348-.494-.847-.494-1.498V2.022zm1.266 4.263c0 .293.059.497.18.614.117.12.277.179.478.179.2 0 .358-.059.478-.18.12-.12.18-.323.18-.613V1.942c0-.29-.06-.496-.18-.613a.643.643 0 00-.478-.18c-.2 0-.358.06-.479.18-.12.12-.179.323-.179.613v4.343zM82.87.092c.636 0 1.111.17 1.42.506.312.336.466.832.466 1.483v1.045c0 .65-.154 1.146-.466 1.482-.312.336-.784.506-1.42.506h-.6v3.02h-1.265V.093h1.865zm-.6 1.15v2.722h.6c.2 0 .352-.052.46-.16.108-.108.16-.305.16-.598V2c0-.29-.052-.49-.16-.598-.108-.108-.26-.16-.46-.16h-.6zM61.365 41.46c-1.047-.255-2.094-.48-3.119-.776-.392-.111-.769-.342-1.09-.598-.145-.114-.142-.42-.203-.638.231-.013.484-.093.688-.022.89.305 1.739.777 2.646.956.896.176 1.85.083 2.776.08.167 0 .333-.13.497-.2 1.84-.79 3.662-1.616 5.527-2.343.534-.21 1.185-.194 1.772-.151.309.021.784.274.846.512.077.292-.108.761-.34 1.001-.314.33-.778.521-1.182.768-.16.099-.33.185-.466.398.17 0 .342-.004.512 0 2.77.077 5.549.055 8.306.268 2.155.166 4.3.564 6.431.968 2.897.551 5.836.6 8.757.872.49.046.985.05 1.472.12.173.025.393.145.47.287.052.099-.071.33-.167.465-.123.176-.29.33-.457.466-1.213.992-2.433 1.976-3.65 2.962-.466.38-.981.537-1.58.42-1.84-.358-3.715-.59-5.515-1.092-3.606-1.002-7.274-1.516-10.992-1.772-1.151-.08-1.374-.345-1.191-1.47.05-.303.102-.602.173-1.012-.856-.068-1.662-.145-2.47-.194-.473-.028-.96.059-1.42-.028-.912-.172-1.647.117-2.397.602-3.492 2.259-6.907 4.617-10.127 7.253-.127.102-.24.216-.392.348.76.586 1.513 1.125 2.22 1.717a320.53 320.53 0 015.403 4.615c.414.364.732.85 1.044 1.316.311.469.16.897-.241 1.26-1.593 1.437-4.335 1.511-5.907.078-1.939-1.766-3.819-3.598-5.724-5.4-.105-.1-.213-.198-.367-.34-.504.478-1 .95-1.498 1.421-1.442 1.366-2.92 2.694-4.313 4.11-1.856 1.886-4.06 1.433-5.99.27-.695-.419-.803-.915-.337-1.569a9.141 9.141 0 011.528-1.689c2.143-1.81 4.323-3.575 6.49-5.357.167-.139.34-.268.572-.45-.846-.672-1.624-1.357-2.47-1.949a706.356 706.356 0 00-8.738-6.004c-.287-.195-.71-.272-1.065-.262-1.331.034-2.659.12-3.986.194-.195.009-.39.052-.64.086.062.38.115.715.167 1.048.16 1.036-.074 1.332-1.108 1.397-3.19.197-6.348.613-9.46 1.35-2.057.484-4.113.955-6.176 1.418-.352.08-.732.142-1.084.102-.453-.053-.981-.1-1.324-.355-1.353-1.017-2.646-2.118-3.958-3.187a.854.854 0 01-.223-.238c-.095-.179-.278-.456-.216-.542.114-.158.377-.278.584-.287 5.036-.234 10.013-.922 14.974-1.785 1.303-.228 2.647-.28 3.974-.311 2.162-.05 4.323-.013 6.487-.013l.037-.224c-.324-.176-.663-.33-.963-.537-.34-.234-.713-.468-.954-.789-.405-.543-.167-1.14.503-1.212.64-.064 1.35-.104 1.936.102 1.627.577 3.267 1.178 4.786 1.982 1.269.672 2.547.762 3.853.53.914-.16 1.782-.588 2.659-.93.308-.124.642-.383.83.03.071.155-.179.623-.383.703-.975.383-1.979.694-2.982.999-.31.093-.646.09-1.112.151.229.151.364.247.5.333 2.915 1.831 5.83 3.665 8.757 5.48.157.1.463.133.608.047 3.035-1.877 6.061-3.78 9.084-5.675.052-.018.086-.065.108-.083z"/></svg><svg viewBox="0 0 361 38" id="reviews-decor" xmlns="http://www.w3.org/2000/svg"><g clip-path="url(#iclip0_36_83)"><path d="M335.9 21.1c4.8-2.3 8.9-6.5 8.6-12.2-.3-4.9-4.9-10.4-10.3-8.6-5.4 1.8-3.8 9.3 1.3 10.2 2.1.4 4.6-.8 4-3.2-.5-2.1-2.5-2.8-3.9-1-.4.5.5 1.2.9.8.4-.3.9-.3 1.3.1.2.3.3.6.2.9-.5.8-1.3 1.2-2.2 1.1-2-.2-3.5-2-3.3-4v-.3c.4-2.6 3.3-3.8 5.7-3 5.7 1.8 5.1 9.3 2.2 13.2-1.7 2.1-3.9 3.7-6.4 4.7-6.4-4.1-14.9-3.9-21.7-1-.3.1-.2.4 0 .7 0 .1.1.2.1.3 2 2.3 5.6 3.1 8.5 3.5 3.7.5 7.5.2 11.2-.8.8-.2 1.6-.5 2.3-.8 1.4 1.1 2.5 2.5 3.4 4 1.4 2.1 1.6 4.7.7 7-1 2.2-3.5 4-6 3.3-1.9-.5-3-2.5-2.5-4.4.3-1 1-1.8 2-2.3 1.2-.6 3.1-.3 3.1 1.4 0 .9-.8 2-1.9 1-.4-.3-1.4-.3-1.1.4.4 1.4 1.9 2.1 3.2 1.7.3-.1.6-.3.9-.5 1.2-1 1-2.8.3-4-2.7-4.5-8.9-1.1-8.5 3.5.5 6 8.7 6.5 11.7 2.2 3.4-4.7.2-10.5-3.8-13.9zm-8.3.4c-2.5.4-5 .4-7.4 0a31 31 0 01-5.8-2.1c5.9-1.4 12.9-1.9 18.1 1-1.5.5-3.2.9-4.9 1.1z"/><path d="M359.7 20c-4.4-1.3-8.8-.3-13.2-.1 1.3-.7 2.5-1.5 3.6-2.5 1.4-1.2 3.7-3 2.4-4.9-.2-.3-.6-.5-1-.4-4.2 1-8.6 5.1-10.9 8.6-.1.1-.1.3 0 .5v.1c.4 5 5.8 8.9 10.3 10 .6.1 1-.1.9-.8-.6-3.2-2.5-5.9-5.2-7.7h6.1c2.6.1 5.1-.4 7.5-1.3.9-.2 0-1.3-.5-1.5zm-8.8-5.8c-1.1 1.2-2.3 2.2-3.6 3.2-1.1.8-2.4 1.4-3.7 1.9 2.1-2.2 4.5-4 7.3-5.1zm-1.2 15.2c-3.3-1.2-5.3-3.5-7-6.5 3.4.7 6 3.2 7 6.5zm1.6-8.2c1.3-.1 2.7-.2 4-.2-1.4.2-2.7.2-4 .2zM20.9 35.1c3 4.3 11.1 3.8 11.7-2.2.4-4.6-5.8-8-8.5-3.5-.7 1.2-.9 3 .3 4 1.1.9 2.7.8 3.6-.3.2-.3.4-.6.5-.9.3-.7-.8-.8-1.1-.4-1.1 1-1.9-.1-1.9-1 0-1.6 1.9-2 3.1-1.4 1.8.8 2.6 2.9 1.8 4.7-.4 1-1.3 1.7-2.3 2-2.5.7-5-1.1-6-3.3-.9-2.3-.7-4.9.7-7 .9-1.5 2-2.9 3.4-4 .8.3 1.5.6 2.3.8 3.6 1 7.4 1.3 11.2.8 2.8-.4 6.5-1.3 8.4-3.5.1-.1.1-.2.2-.3.2-.2.3-.5 0-.7-6.8-3-15.3-3.2-21.7 1-2.5-1-4.7-2.6-6.3-4.7-2.9-3.8-3.5-11.4 2.2-13.2 2.4-.8 5.3.4 5.7 3 .3 2-1 3.9-3 4.2h-.3c-.9.1-1.7-.3-2.2-1.1-.2-.5 0-1 .5-1.2.3-.1.7-.1.9.2.4.4 1.3-.3.9-.8-1.3-1.8-3.4-1.1-3.8 1-.6 2.5 1.9 3.6 4 3.2 5-.9 6.5-8.4 1.3-10.2C21.3-1.5 16.3 4.1 16 9c-.3 5.7 3.8 9.9 8.6 12.2-3.9 3.3-7.1 9.1-3.7 13.9zM28 20.3c5.3-2.9 12.2-2.4 18.1-1a31 31 0 01-5.8 2.1c-2.5.4-5 .4-7.4 0-1.6-.2-3.3-.5-4.9-1.1z"/><path d="M.3 21.6c2.4.9 5 1.4 7.5 1.3 2 .1 4.1.1 6.1 0-2.7 1.8-4.5 4.6-5.2 7.7-.1.6.3.9.9.8 4.5-1.1 9.9-5.1 10.3-10v-.1c.1-.1.1-.3 0-.5-2.3-3.5-6.7-7.6-10.9-8.6-.4 0-.8.1-1 .4-1.3 1.9 1 3.7 2.4 4.9 1.1 1 2.3 1.8 3.6 2.5-4.3-.3-8.7-1.2-13.1 0-.4.2-1.4 1.3-.6 1.6zM17 19.3c-1.3-.5-2.5-1.1-3.7-1.9-1.3-.9-2.5-2-3.7-3.1 2.8 1 5.3 2.8 7.4 5zm.8 3.6c-1.7 3-3.7 5.3-7 6.5 1-3.3 3.7-5.8 7-6.5zM5.4 21c1.3 0 2.7.1 4 .2-1.4 0-2.7 0-4-.2zM57.2 20.7c31.4.7 62.9.2 94.3.2l90.5.1h54.2c1.3 0 .5-1.8-.5-1.8h-.3c-1.3 0-.5 1.8.5 1.8 2.7 0 5.3 0 8-.1 1.3 0 .3-2-.8-1.5.3-.1.4-.1.1-.1-1.2 0-.4 1.6.4 1.6.2 0 .2 0 0 0 1.2.4.9-1.5-.2-1.5-2.7-.1-5.4-.1-8-.1-1.3 0-.5 1.8.5 1.8h.3c1.3 0 .5-1.8-.5-1.8-61.6 0-123.2 0-184.7.1-18.1 0-36.1-.2-54.2.2-.8-.1-.3 1.1.4 1.1z"/></g><defs><clipPath id="iclip0_36_83"><path d="M0 0h360.6v37.9H0z"/></clipPath></defs></svg></svg>